<?xml version="1.0" standalone="no"?>
<!DOCTYPE svg PUBLIC "-//W3C//DTD SVG 20010904//EN"
 "http://www.w3.org/TR/2001/REC-SVG-20010904/DTD/svg10.dtd">
<svg version="1.0" xmlns="http://www.w3.org/2000/svg"
 width="720.000000pt" height="720.000000pt" viewBox="0 0 720.000000 720.000000"
 preserveAspectRatio="xMidYMid meet">
<metadata>
Created by potrace 1.15, written by Peter Selinger 2001-2017
</metadata>
<g transform="translate(0.000000,720.000000) scale(0.100000,-0.100000)"
fill="#000000" stroke="none">
<path d="M4733 7044 c-9 -19 -9 -26 0 -28 7 -2 35 -10 63 -19 29 -10 62 -17
75 -17 23 -1 59 -21 59 -33 0 -3 23 -28 51 -54 51 -48 74 -86 63 -104 -4 -6
-13 -4 -24 6 -10 9 -24 14 -31 10 -6 -5 -61 -8 -121 -8 -83 1 -113 4 -126 16
-10 9 -46 17 -92 21 -41 3 -94 12 -117 21 -23 8 -49 12 -58 9 -8 -3 -31 3 -51
15 -19 12 -40 19 -45 16 -5 -3 -40 12 -78 34 -38 23 -72 41 -76 41 -4 0 -38
14 -76 31 -39 16 -76 28 -82 26 -7 -2 6 -10 28 -16 41 -13 102 -58 92 -67 -3
-3 -18 1 -34 9 -83 45 -251 74 -268 47 -4 -6 9 -10 32 -10 31 0 46 -7 72 -34
l32 -33 -40 -7 c-21 -3 -46 -3 -54 0 -8 3 -29 -4 -47 -14 -17 -11 -40 -17 -51
-15 -43 12 -199 -100 -199 -142 0 -15 -2 -15 -16 -4 -14 11 -18 11 -28 -2 -6
-8 -20 -19 -31 -23 -13 -5 -15 -10 -7 -13 6 -3 12 -9 12 -15 0 -6 -11 -3 -25
6 -29 19 -46 21 -40 4 5 -13 -59 -48 -87 -48 -9 0 -21 -7 -28 -15 -10 -12 -9
-20 4 -40 18 -27 21 -26 -67 -40 -33 -5 -38 -9 -35 -30 3 -26 -3 -28 -40 -14
-34 13 -42 11 -42 -11 0 -15 -7 -20 -25 -20 -22 0 -25 -3 -19 -25 5 -21 1 -26
-22 -35 -16 -6 -36 -20 -44 -30 -13 -17 -24 -21 -69 -29 -3 -1 6 -12 19 -26
26 -27 22 -42 -7 -27 -27 15 -85 19 -90 6 -2 -7 8 -15 22 -18 41 -10 18 -28
-26 -21 -22 4 -63 4 -91 0 l-52 -7 35 -29 c38 -32 19 -40 -21 -9 -26 21 -45
26 -35 11 3 -5 -4 -12 -15 -16 -16 -5 -18 -10 -10 -26 9 -16 7 -19 -10 -19
-11 0 -20 3 -20 8 0 4 -11 15 -24 24 -23 17 -24 17 -18 -5 5 -22 5 -22 -16 -3
-27 24 -52 17 -27 -7 26 -27 8 -34 -19 -8 -23 22 -26 22 -55 8 -17 -8 -40 -13
-52 -10 -16 5 -20 2 -17 -13 2 -10 -2 -19 -9 -19 -20 0 -28 -16 -28 -59 0 -33
-7 -48 -27 -67 -26 -25 -48 -83 -48 -131 0 -18 -5 -28 -15 -28 -9 0 -15 -9
-15 -21 0 -15 -5 -19 -15 -15 -11 4 -15 -1 -15 -17 0 -28 -18 -47 -44 -47 -13
0 -16 -3 -10 -8 14 -9 11 -129 -4 -144 -12 -12 -4 -80 12 -90 6 -4 19 -5 29
-2 19 6 24 -11 6 -22 -19 -11 10 -22 58 -22 23 0 45 4 49 9 7 11 24 12 24 1 0
-5 -15 -14 -34 -22 -29 -11 -35 -19 -39 -52 -3 -24 0 -50 9 -66 8 -15 14 -35
14 -44 0 -10 5 -18 11 -18 5 0 7 -4 4 -10 -3 -5 0 -7 9 -4 16 6 31 57 22 73
-3 5 2 8 12 7 12 -1 18 8 20 27 2 15 11 31 21 37 10 5 24 23 31 40 10 25 10
36 0 55 -11 21 -11 28 5 45 10 11 27 22 39 26 25 8 46 29 64 64 23 47 49 85
81 119 17 18 31 39 31 47 0 8 9 14 20 14 11 0 20 7 20 15 0 8 5 16 10 16 6 1
15 3 20 4 6 1 22 3 36 4 15 0 23 5 19 12 -4 5 -1 23 5 39 10 24 15 28 30 20
10 -6 23 -10 29 -10 21 0 11 16 -16 28 -25 10 -23 11 21 6 45 -5 49 -4 37 10
-12 14 -9 16 20 16 19 -1 52 -7 74 -15 49 -18 78 -20 55 -4 -11 7 -6 8 20 4
79 -14 136 -1 168 37 21 24 31 29 56 25 20 -3 38 1 49 11 14 12 24 14 45 6 15
-5 52 -9 82 -9 30 0 60 -5 67 -11 8 -8 36 -10 78 -6 52 4 69 1 83 -12 14 -12
42 -17 110 -18 51 -2 93 1 95 6 1 4 82 9 180 10 126 1 176 -2 173 -10 -3 -8
24 -11 87 -10 84 0 93 -1 101 -21 6 -11 28 -29 50 -38 23 -10 56 -31 73 -46
18 -15 48 -31 68 -35 21 -4 44 -17 58 -34 14 -19 34 -30 57 -33 19 -2 34 -9
33 -15 -1 -5 4 -13 12 -16 9 -3 15 1 15 9 0 17 6 18 35 5 17 -7 17 -9 3 -9
-10 -1 -18 -5 -18 -10 0 -12 26 -21 63 -21 35 0 97 -33 97 -51 0 -8 -5 -8 -15
1 -9 7 -18 10 -21 7 -3 -3 17 -21 45 -39 53 -35 62 -51 34 -63 -14 -5 -9 -10
24 -24 23 -9 48 -22 55 -29 6 -6 26 -12 43 -12 24 0 35 -6 46 -27 21 -41 60
-83 77 -83 9 0 13 -7 9 -19 -9 -34 14 -114 44 -155 21 -29 29 -51 29 -82 0
-25 6 -47 15 -54 12 -10 13 -16 4 -26 -6 -8 -8 -14 -3 -14 5 0 18 -28 28 -63
11 -34 30 -85 43 -114 12 -28 23 -60 23 -71 0 -11 14 -46 31 -78 17 -32 39
-76 50 -96 11 -21 19 -57 19 -84 l0 -47 -82 7 c-46 4 -112 10 -148 12 -36 3
-95 9 -132 14 -36 6 -73 7 -81 4 -8 -3 -21 2 -29 10 -22 21 -85 31 -103 16 -9
-7 -18 -10 -22 -7 -3 4 -12 2 -19 -3 -8 -8 -32 -8 -75 0 -86 13 -146 13 -151
-2 -3 -8 -27 -13 -61 -14 -32 -1 -63 -6 -70 -12 -6 -5 -25 -12 -42 -15 -16 -3
-52 -10 -80 -16 -27 -5 -69 -17 -92 -26 -24 -10 -54 -14 -67 -11 -15 4 -28 0
-36 -9 -7 -8 -27 -15 -44 -15 -17 0 -42 -8 -56 -17 -13 -9 -42 -20 -64 -24
-23 -4 -59 -12 -81 -18 -22 -6 -79 -11 -127 -11 -48 0 -90 -5 -93 -10 -8 -13
-68 -1 -82 17 -7 9 -70 27 -145 43 -73 16 -162 36 -198 44 -221 52 -619 48
-995 -10 -93 -14 -201 -29 -240 -33 -38 -4 -84 -15 -101 -24 -30 -16 -32 -19
-36 -93 -3 -42 -3 -97 0 -121 4 -40 7 -44 43 -53 66 -18 79 -47 134 -285 35
-149 90 -325 121 -386 48 -95 148 -156 339 -205 102 -27 123 -29 305 -29 177
0 202 2 268 23 40 13 80 31 89 40 12 12 18 13 21 4 2 -6 8 -12 14 -12 6 0 7 7
4 16 -3 8 -2 13 3 10 6 -4 67 57 152 155 9 11 29 19 45 19 34 0 30 -6 135 186
80 146 97 173 164 262 33 44 44 52 72 52 18 0 48 -11 67 -24 43 -29 96 -86 96
-103 0 -7 5 -13 10 -13 6 0 10 -11 10 -25 0 -14 4 -25 8 -25 5 0 13 -10 19
-22 6 -13 30 -63 54 -113 23 -49 55 -109 70 -132 16 -23 29 -44 29 -48 0 -14
53 -75 65 -75 7 0 18 -7 25 -15 7 -9 15 -14 17 -11 2 2 40 -18 85 -45 101 -61
158 -82 282 -104 121 -22 298 -16 429 14 186 43 301 111 373 221 16 24 37 52
47 62 9 10 17 25 17 33 0 8 6 29 14 47 8 18 22 69 31 113 9 44 27 118 40 165
12 47 31 120 40 162 15 65 23 82 49 102 17 12 41 26 53 30 11 4 24 19 28 34 8
29 7 206 -1 226 -3 7 -30 19 -60 25 -29 7 -54 17 -54 23 0 6 14 53 30 105 17
51 30 102 30 113 0 10 5 22 10 25 6 3 10 35 10 71 0 72 12 104 38 105 10 0 12
3 5 6 -7 2 -13 14 -13 25 0 14 5 18 15 14 10 -4 15 1 15 14 0 11 -4 20 -10 20
-5 0 -10 5 -10 10 0 6 9 10 20 10 13 0 20 7 20 20 0 12 7 20 16 20 11 0 14 5
10 16 -3 9 -3 21 1 27 3 6 7 62 9 124 1 71 6 119 14 128 8 9 10 28 6 50 -8 39
-5 42 17 20 13 -13 16 -7 22 46 7 62 -3 106 -33 142 -10 11 -11 17 -4 17 7 0
12 5 12 10 0 6 -6 10 -13 10 -8 0 -20 18 -27 41 -11 33 -11 42 -1 49 10 6 10
9 1 15 -7 4 -16 2 -21 -6 -6 -11 -10 -9 -15 6 -5 11 -3 20 4 23 7 2 -3 19 -23
40 -36 39 -46 72 -20 72 8 0 15 5 15 10 0 6 -7 10 -15 10 -8 0 -15 5 -15 11 0
7 -14 25 -30 41 -17 16 -28 33 -25 38 3 6 0 7 -8 4 -9 -3 -18 5 -26 23 -6 16
-21 34 -32 42 -12 7 -18 8 -15 3 3 -6 -8 -15 -26 -21 -39 -14 -35 -15 -49 11
-9 18 -8 24 5 34 24 17 18 78 -8 83 -29 5 -76 56 -76 81 0 15 -9 25 -30 33
-16 6 -30 15 -30 19 0 4 -5 8 -11 8 -18 0 -39 28 -46 61 -3 18 -13 34 -24 36
-10 3 -20 11 -23 19 -3 8 -12 14 -20 14 -9 0 -16 11 -18 28 -2 15 -9 27 -15
27 -14 0 -55 70 -47 78 3 3 -2 17 -11 31 -15 22 -20 24 -33 14 -9 -8 -17 -9
-19 -3 -2 6 -13 25 -26 44 -12 19 -27 43 -33 53 -6 10 -14 15 -17 12 -3 -4
-16 16 -28 42 -12 27 -24 55 -28 62 -8 18 -27 11 -23 -8 15 -72 9 -95 -20 -67
-7 7 -25 20 -39 29 -14 9 -32 29 -40 45 -27 54 -84 121 -127 148 -24 15 -48
33 -55 39 -7 6 -37 21 -67 34 -30 13 -59 25 -65 28 -5 2 -15 -8 -22 -22z
m-2108 -2674 c-5 -17 -2 -20 26 -20 26 0 29 -2 20 -14 -9 -11 -9 -16 0 -22 8
-4 9 -3 5 4 -5 8 0 12 13 12 12 0 21 -4 21 -8 0 -15 -44 -32 -70 -28 l-25 5
23 -16 c29 -20 28 -31 -3 -43 -22 -8 -24 -14 -19 -37 4 -16 13 -32 21 -36 19
-11 16 -24 -7 -30 -23 -6 -27 -37 -5 -37 11 0 14 -7 9 -25 -5 -21 -3 -25 15
-25 14 0 23 -8 27 -25 3 -14 10 -25 15 -25 5 0 9 -7 9 -16 0 -9 5 -12 11 -8 8
5 10 -5 7 -32 -3 -22 1 -50 8 -65 13 -26 67 -59 96 -59 22 0 42 -45 35 -79 -5
-22 -2 -33 11 -41 11 -7 13 -13 6 -16 -24 -10 7 -70 47 -95 21 -13 39 -28 39
-33 0 -5 6 -3 14 3 10 9 16 8 26 -4 9 -11 16 -12 26 -4 10 8 16 1 26 -33 7
-24 21 -50 32 -59 10 -8 20 -28 22 -43 5 -48 60 -87 79 -57 3 6 18 6 37 0 25
-7 36 -5 51 9 15 12 21 14 24 5 7 -19 18 -16 76 21 64 41 177 160 205 216 11
23 23 36 27 31 10 -16 -3 -49 -47 -118 -95 -150 -251 -232 -477 -249 -60 -5
-90 -3 -95 4 -4 7 6 15 26 20 23 7 3 8 -69 5 -198 -10 -360 32 -443 117 -25
25 -58 71 -73 103 -33 67 -61 208 -44 219 6 3 12 26 14 50 13 152 39 252 73
273 16 10 12 35 -5 29 -8 -4 -15 -1 -15 5 0 7 6 14 14 17 12 5 11 11 -5 39
-11 18 -19 37 -17 41 1 5 -6 24 -15 42 -17 32 -17 34 3 66 22 37 82 71 106 62
9 -3 22 1 30 9 9 8 27 15 40 15 21 0 24 -4 19 -20z m2817 -771 c6 17 96 -12
106 -34 14 -30 -8 -87 -49 -124 -39 -36 -58 -39 -81 -12 -19 23 -12 36 9 16
11 -12 18 -12 33 -2 30 18 24 30 -10 24 -28 -6 -30 -4 -31 23 -1 17 -2 35 -3
42 -1 6 5 13 13 16 10 3 12 0 7 -14 -5 -14 -4 -16 4 -8 17 17 8 48 -18 59 -12
5 -22 13 -22 18 0 4 9 3 19 -3 11 -5 21 -6 23 -1z"/>
<path d="M2338 4736 c-10 -7 -18 -18 -18 -23 0 -6 -6 -16 -14 -22 -16 -13 -34
-107 -32 -171 l1 -45 45 3 c25 1 50 4 55 6 6 2 9 53 7 135 -3 136 -7 146 -44
117z"/>
<path d="M4266 2823 c-10 -3 -34 -19 -53 -36 -30 -27 -34 -36 -28 -64 5 -27 3
-32 -10 -27 -9 4 -15 1 -15 -9 0 -8 6 -18 13 -20 6 -3 4 -6 -7 -6 -11 -1 -35
-13 -53 -27 -27 -20 -46 -26 -84 -26 -38 0 -52 -5 -60 -19 -5 -11 -16 -19 -23
-19 -20 0 -32 -76 -15 -96 10 -12 23 -14 54 -9 34 6 94 11 178 14 23 1 22 31
-1 31 -30 0 -55 25 -58 58 -2 18 -2 32 0 32 14 0 76 -32 76 -39 0 -14 62 -22
76 -10 11 9 18 8 28 0 8 -7 21 -11 29 -9 8 2 23 -8 34 -21 20 -24 20 -24 46
-5 18 13 24 25 21 40 -3 11 1 26 9 32 12 11 16 5 21 -32 4 -24 13 -47 21 -50
19 -7 68 33 61 50 -6 16 20 19 29 4 3 -5 1 -10 -4 -10 -17 0 -13 -47 5 -54 13
-5 15 -1 10 18 -5 20 -3 23 14 19 14 -4 25 4 41 32 12 20 25 32 28 27 12 -19
176 -39 186 -23 9 15 -6 40 -21 34 -8 -3 -14 1 -14 10 0 8 -6 18 -12 21 -7 3
1 3 17 -1 17 -3 26 -2 22 3 -5 5 -33 9 -63 9 -41 0 -53 -3 -49 -13 3 -8 5 -16
5 -18 0 -2 9 -4 20 -4 11 0 20 -5 20 -10 0 -19 -27 -21 -65 -5 -32 13 -43 13
-66 3 -16 -7 -28 -19 -26 -28 4 -25 -27 -22 -39 4 -9 20 -9 23 2 19 8 -3 14 0
14 6 0 6 12 11 26 11 16 0 24 5 22 13 -6 15 -49 22 -57 9 -4 -6 -11 -4 -19 4
-7 8 -8 14 -2 14 13 0 13 40 0 41 -5 1 -15 2 -20 3 -6 0 -14 7 -19 14 -4 7
-14 12 -21 10 -7 -2 -15 4 -17 12 -4 12 -3 12 5 2 13 -20 21 5 11 38 -4 14 -7
21 -8 16 -1 -5 -10 3 -22 18 -19 24 -26 26 -97 25 -42 -1 -85 -3 -96 -6z"/>
<path d="M5008 2725 c-6 -14 -15 -25 -20 -25 -4 0 -8 -9 -8 -20 0 -11 -4 -20
-10 -20 -5 0 -10 -9 -10 -20 0 -11 5 -20 10 -20 6 0 10 -4 10 -10 0 -20 -15
-9 -38 25 -12 19 -27 35 -32 35 -16 0 -12 -42 6 -61 19 -21 11 -39 -19 -39
-13 0 -17 3 -10 8 8 5 8 12 -3 26 -7 11 -17 16 -21 12 -4 -4 -2 -11 5 -15 7
-4 10 -14 8 -22 -6 -15 36 -69 53 -69 16 0 53 -58 41 -65 -5 -3 -10 0 -10 8 0
8 -11 17 -25 19 -14 3 -25 2 -25 -1 0 -12 68 -71 82 -71 17 0 18 50 2 72 -6 7
-10 20 -9 28 1 8 3 23 3 32 2 14 9 17 32 15 40 -5 68 -32 76 -73 3 -19 10 -34
15 -34 5 0 9 -4 9 -10 0 -5 -9 -10 -20 -10 -25 0 -26 -17 -1 -25 24 -7 35 -43
12 -41 -10 1 -14 -5 -12 -14 2 -8 7 -28 11 -45 5 -16 8 -24 9 -17 1 9 8 11 21
7 13 -4 22 -1 26 9 3 9 12 16 19 16 7 0 15 16 18 38 3 20 11 60 18 88 19 78
-4 128 -104 232 -45 45 -85 82 -89 82 -5 0 -14 -11 -20 -25z"/>
<path d="M2995 2658 c-66 -60 -106 -143 -108 -224 -2 -66 10 -91 37 -81 11 5
15 20 15 60 -1 44 4 61 29 98 17 24 28 48 25 52 -3 5 3 6 14 3 36 -12 84 57
49 70 -23 9 -20 31 5 37 22 6 18 27 -6 27 -8 0 -35 -19 -60 -42z"/>
<path d="M4963 2380 c-13 -5 -23 -14 -23 -19 0 -21 -84 -55 -127 -52 -24 1
-61 0 -83 -4 -37 -6 -39 -8 -34 -35 12 -56 -33 -140 -74 -140 -10 0 -26 -13
-35 -30 -23 -38 -42 -38 -78 1 -31 33 -49 31 -49 -5 0 -39 -37 -61 -115 -69
-16 -2 -41 -9 -54 -16 -35 -19 -121 -31 -264 -37 -78 -3 -135 0 -147 6 -12 7
-21 7 -25 0 -3 -5 0 -10 7 -10 7 0 25 -11 40 -25 19 -18 46 -28 97 -36 39 -6
75 -8 80 -5 5 3 24 0 42 -8 28 -12 39 -12 73 1 38 13 59 13 139 -3 30 -6 34
-19 13 -43 -8 -9 -26 -28 -40 -43 -14 -16 -23 -28 -20 -28 3 0 46 14 96 31 63
21 110 45 152 77 74 57 144 129 157 160 5 13 13 20 19 17 5 -3 10 1 10 9 0 10
8 15 22 13 15 -1 26 6 36 26 7 15 19 27 27 27 16 0 54 62 62 102 4 23 8 26 17
14 6 -7 25 -17 41 -20 18 -4 25 -3 17 2 -14 10 -7 37 16 65 20 23 42 22 42 -3
0 -11 5 -20 10 -20 6 0 10 14 10 30 0 17 5 30 10 30 6 0 10 5 10 10 0 6 -6 10
-14 10 -8 0 -16 7 -20 15 -6 17 -12 18 -43 5z"/>
<path d="M5543 2257 c-16 -23 -32 -62 -37 -98 -4 -20 -17 -46 -30 -58 -14 -13
-22 -30 -19 -41 3 -10 0 -21 -6 -24 -6 -4 -11 -16 -11 -27 0 -10 -4 -19 -9
-19 -11 0 -41 -57 -41 -77 0 -7 -7 -16 -15 -19 -8 -4 -15 -11 -15 -16 0 -16
-43 -98 -51 -98 -6 0 -17 -25 -24 -55 -2 -5 -4 -12 -5 -15 -1 -3 -3 -12 -5
-20 -2 -8 -12 -35 -23 -60 -14 -33 -21 -78 -26 -167 -4 -67 -10 -134 -15 -150
-5 -15 -14 -59 -21 -98 -11 -63 -41 -156 -73 -225 -6 -14 -11 -29 -12 -35 0
-5 -10 -31 -23 -57 -12 -26 -23 -61 -24 -79 -1 -17 -8 -33 -15 -36 -6 -3 -10
-10 -7 -17 3 -7 -2 -19 -11 -26 -8 -7 -15 -19 -15 -27 0 -8 -9 -26 -20 -40
-11 -14 -20 -36 -20 -50 0 -13 -7 -26 -15 -29 -8 -4 -15 -12 -15 -19 0 -7 -7
-15 -15 -19 -8 -3 -20 -17 -27 -31 -6 -14 -17 -25 -25 -25 -8 0 -13 -13 -13
-36 0 -28 -5 -37 -21 -41 -11 -3 -18 -11 -15 -19 3 -7 -2 -18 -10 -24 -8 -7
-14 -21 -14 -31 0 -12 -10 -21 -26 -25 -20 -5 -25 -12 -22 -33 2 -20 -1 -25
-14 -23 -26 4 -60 -17 -54 -33 3 -8 -6 -18 -22 -24 -17 -6 -21 -10 -9 -10 21
-1 23 -21 2 -21 -18 0 -20 -26 -2 -33 10 -4 10 -7 0 -18 -7 -7 -13 -26 -13
-41 0 -18 -5 -28 -15 -28 -10 0 -15 -10 -15 -30 l0 -30 128 0 c137 0 140 1
169 60 7 14 17 32 22 40 5 8 23 46 40 84 17 38 34 66 37 63 3 -3 1 -29 -5 -57
-6 -28 -11 -82 -11 -120 l0 -70 1105 0 1105 0 0 889 0 890 -32 -11 c-62 -19
-73 -18 -33 1 22 11 45 20 51 20 7 1 12 28 13 70 l2 69 -38 6 c-86 14 -226 23
-256 16 -18 -5 -26 -8 -18 -9 8 -1 12 -3 10 -6 -3 -2 -27 2 -54 10 -26 8 -61
15 -77 15 -36 0 -37 20 0 21 15 1 34 2 42 3 8 1 20 -2 26 -6 12 -8 49 -6 59 3
7 7 -126 73 -200 98 -89 31 -144 25 -212 -25 -17 -13 -38 -24 -45 -24 -8 0
-20 -6 -26 -12 -10 -10 -17 -10 -31 -1 -11 7 -23 8 -32 2 -10 -6 -8 -9 10 -9
20 0 21 -2 11 -15 -7 -8 -22 -15 -34 -16 -19 0 -19 -1 4 -12 22 -10 17 -12
-45 -15 -38 -2 -90 2 -114 8 -49 12 -204 107 -196 120 6 9 -60 80 -74 80 -5 0
-14 7 -22 16 -17 21 -95 60 -144 72 -70 17 -192 23 -202 9z"/>
<path d="M3290 2237 c-38 -19 -36 -43 5 -80 20 -17 82 -78 138 -133 104 -104
192 -173 204 -161 3 4 1 7 -5 7 -7 0 -12 5 -12 10 0 6 7 10 15 10 10 0 15 10
15 31 0 16 -4 28 -9 24 -17 -10 -23 16 -9 38 30 46 28 53 -13 49 -35 -4 -40
-1 -60 32 -11 20 -27 36 -34 36 -19 0 -55 63 -55 97 0 16 -5 34 -12 41 -16 16
-136 15 -168 -1z"/>
<path d="M2492 2085 c-35 -17 -67 -36 -70 -41 -4 -5 -23 -18 -42 -28 -19 -10
-54 -32 -78 -48 -24 -15 -45 -28 -48 -28 -3 0 -14 -8 -25 -18 -10 -11 -32 -25
-47 -33 -41 -20 -62 -45 -62 -73 0 -14 -5 -28 -10 -31 -6 -4 -8 -10 -5 -14 2
-5 -4 -16 -15 -26 -10 -9 -16 -23 -14 -30 4 -9 -18 -18 -68 -31 -68 -18 -70
-19 -35 -22 31 -3 36 -6 27 -17 -6 -7 -13 -23 -15 -35 -5 -25 20 -80 36 -80 6
0 9 -6 6 -14 -3 -7 -2 -17 3 -22 4 -5 4 -34 0 -64 -4 -30 -5 -61 -3 -67 3 -7
-7 -17 -22 -23 -27 -10 -27 -11 -9 -25 10 -8 14 -15 7 -15 -9 0 -8 -8 3 -27 7
-16 14 -36 14 -46 0 -27 19 -57 35 -57 28 0 44 -50 34 -110 -6 -40 -5 -56 4
-62 17 -10 1 -23 -53 -41 -25 -8 -69 -25 -98 -36 -66 -26 -75 -26 -67 -1 5 14
2 20 -10 20 -30 0 -47 29 -48 81 -1 27 3 53 8 57 6 4 17 20 24 35 12 23 13 36
3 74 -10 34 -10 49 -1 59 9 11 8 14 -4 14 -9 0 -19 -5 -22 -10 -10 -15 -35
-12 -35 5 0 8 -7 15 -17 15 -14 0 -14 -2 -2 -17 24 -28 10 -85 -24 -101 -15
-7 -37 -10 -49 -6 -20 6 -21 7 -4 19 17 13 16 14 -4 25 -17 9 -20 17 -15 37 5
23 4 24 -22 19 -30 -6 -69 11 -45 21 23 9 66 62 57 71 -3 3 -10 0 -14 -7 -12
-18 -53 -7 -68 18 -11 17 -10 22 7 31 35 19 22 27 -32 22 -47 -4 -52 -3 -40
11 11 13 9 16 -18 22 -23 5 -28 10 -21 19 16 19 -20 48 -55 44 -27 -3 -27 -2
-31 60 -2 38 0 62 7 62 14 0 13 13 -7 103 -10 43 -22 77 -29 77 -15 0 -64 -57
-64 -73 0 -7 -23 -23 -50 -36 l-50 -25 21 -22 c14 -15 19 -29 15 -42 -5 -14
-1 -24 11 -31 15 -9 12 -10 -12 -5 -16 4 -40 11 -53 15 -13 5 -30 9 -38 9 -24
0 -16 -17 12 -24 37 -10 74 -36 74 -52 0 -8 10 -19 23 -25 31 -14 54 -49 32
-49 -8 0 -15 -7 -15 -15 0 -9 6 -12 18 -8 9 3 14 3 10 -2 -4 -4 0 -13 9 -20
14 -11 12 -13 -15 -23 l-31 -11 20 -40 c11 -23 24 -53 29 -66 6 -17 20 -27 39
-31 33 -7 48 -29 25 -38 -16 -6 -20 -66 -4 -66 5 0 7 7 3 16 -5 12 0 15 23 12
24 -2 28 -7 26 -25 -2 -13 2 -23 8 -23 6 0 8 6 4 13 -4 6 -3 9 1 4 10 -9 14
-57 4 -51 -4 2 -12 -3 -19 -11 -7 -8 -17 -15 -22 -15 -17 0 -78 -32 -78 -41 0
-5 7 -6 15 -3 15 6 21 -7 9 -19 -10 -10 -4 -275 9 -387 7 -58 10 -117 6 -130
-3 -14 -2 -35 2 -48 5 -12 11 -86 14 -165 3 -78 7 -153 9 -167 3 -14 5 -37 5
-52 l1 -28 310 0 c225 0 310 3 310 11 0 7 -12 23 -27 37 l-27 24 24 13 23 12
-32 11 c-24 8 -31 17 -31 36 0 15 -4 26 -10 26 -5 0 -10 9 -10 19 0 11 -12 33
-26 48 -15 15 -34 46 -44 68 -10 22 -27 49 -39 59 -11 11 -21 29 -21 41 0 11
-4 25 -9 31 -15 14 -81 144 -81 158 0 7 -11 23 -24 35 -13 12 -26 36 -30 52
-3 17 -13 37 -21 45 -8 9 -16 30 -16 47 -1 18 -3 24 -6 14 -5 -18 -5 -18 -19
0 -18 24 -17 30 5 36 12 3 23 -4 35 -24 10 -16 21 -29 26 -29 4 0 23 -25 42
-57 18 -31 41 -68 50 -82 9 -14 17 -36 17 -49 1 -13 5 -21 10 -18 8 5 51 -69
51 -87 0 -4 9 -16 20 -27 11 -11 20 -27 20 -35 0 -8 5 -15 10 -15 6 0 10 -9
10 -20 0 -11 7 -23 15 -26 8 -4 15 -10 15 -14 0 -14 64 -114 77 -123 7 -4 13
-14 13 -22 0 -7 5 -15 11 -17 6 -2 11 -20 11 -40 0 -23 5 -39 15 -42 8 -3 11
-11 8 -16 -4 -6 -1 -9 7 -8 8 2 14 -8 16 -25 2 -15 8 -25 13 -22 5 4 9 -1 9
-9 0 -14 18 -16 115 -16 63 0 115 2 115 5 0 3 -15 27 -33 53 -95 137 -136 343
-121 607 4 72 8 132 9 135 1 3 6 16 12 30 36 85 44 271 18 395 -16 75 -19 277
-5 310 5 13 9 -29 9 -112 1 -73 1 -135 2 -138 0 -2 7 -28 15 -57 29 -111 28
-191 -6 -363 -27 -140 -31 -180 -31 -319 1 -252 44 -395 155 -524 l20 -23 265
2 c232 1 262 3 246 16 -17 12 -18 15 -5 23 8 5 10 10 4 10 -6 0 -10 11 -9 25
2 14 -1 25 -7 25 -6 0 -8 7 -4 15 3 9 0 15 -7 15 -7 0 -22 7 -33 15 -18 15
-18 15 6 12 14 -2 19 -2 13 0 -7 3 -13 10 -13 17 0 12 -24 28 -60 39 -10 4 -8
6 6 6 22 1 30 31 8 31 -7 0 -15 4 -18 9 -4 5 3 7 14 4 26 -7 26 12 0 34 -14
13 -16 19 -7 25 9 6 9 8 -1 8 -7 0 -10 5 -7 10 10 16 -18 80 -35 80 -12 0 -12
2 -1 9 17 11 5 71 -14 71 -8 0 -11 7 -8 18 2 11 -3 37 -13 58 -9 21 -17 51
-18 65 -2 15 -10 34 -19 44 -18 18 -23 30 -8 21 5 -4 7 3 4 14 -3 11 -13 20
-22 20 -12 0 -13 2 -3 8 14 9 6 42 -12 54 -7 5 -6 8 4 8 11 1 10 4 -4 15 -14
11 -16 15 -5 15 11 0 11 2 1 9 -7 4 -12 12 -11 17 3 19 -2 32 -21 54 -11 12
-17 27 -14 31 3 5 0 9 -5 9 -6 0 -11 9 -11 20 0 19 -34 77 -53 91 -4 3 -5 13
-2 21 4 9 0 18 -8 21 -20 7 -41 67 -24 68 7 0 2 4 -11 9 -12 5 -24 15 -26 22
-15 60 -42 137 -53 153 -7 11 -13 30 -13 44 0 13 -8 29 -17 36 -13 9 -16 27
-15 76 1 35 6 80 12 99 8 27 7 37 -5 49 -10 11 -17 11 -27 3 -8 -6 -19 -7 -27
-2 -21 12 4 92 49 160 50 74 153 184 207 221 40 28 54 52 36 62 -5 3 -37 -10
-71 -28z"/>
<path d="M2739 1658 c-1 -7 -1 -19 0 -26 1 -8 -3 -20 -9 -27 -7 -8 -9 -19 -5
-24 3 -6 2 -27 -4 -46 -5 -21 -6 -33 0 -30 5 4 9 2 9 -4 0 -5 -3 -12 -8 -15
-4 -2 -7 -30 -7 -60 1 -31 -1 -56 -4 -56 -10 0 1 -271 12 -305 3 -11 9 -51 11
-90 3 -38 10 -92 16 -120 6 -27 12 -66 14 -85 1 -19 6 -46 10 -58 5 -13 9 -34
11 -45 1 -12 12 -51 23 -87 12 -36 33 -105 49 -154 15 -49 33 -95 40 -101 7
-7 10 -23 8 -34 -2 -13 2 -24 11 -28 11 -4 12 -9 3 -19 -9 -11 -8 -14 4 -14
12 0 19 -11 31 -50 1 -3 4 -9 7 -15 4 -5 10 -30 14 -54 5 -30 13 -45 26 -48
21 -6 26 -33 7 -33 -8 0 -5 -7 6 -15 16 -12 63 -15 253 -15 139 0 233 4 233 9
0 6 -8 16 -18 23 -10 7 -25 34 -32 59 -10 34 -18 45 -29 41 -8 -3 -12 -1 -8 5
4 6 -2 18 -13 28 -11 10 -20 24 -20 30 0 7 -7 19 -17 26 -9 8 -22 28 -30 44
-30 63 -47 92 -89 148 -24 31 -44 61 -44 66 0 4 -9 16 -20 26 -11 10 -20 23
-20 29 0 6 -23 49 -51 96 -105 174 -182 356 -252 590 -37 126 -46 170 -63 303
-14 113 -24 147 -45 147 -5 0 -10 -6 -10 -12z"/>
<path d="M880 1540 c-43 -21 -112 -50 -172 -71 -38 -12 -68 -26 -68 -31 0 -4
-5 -8 -11 -8 -6 0 -22 -9 -36 -20 -24 -19 -24 -20 -5 -20 11 0 54 5 95 10 74
11 126 16 179 19 23 1 29 7 37 39 13 47 2 93 -19 82z"/>
<path d="M4875 1431 c-7 -12 26 -31 52 -31 22 -1 55 -24 46 -33 -3 -4 -18 -4
-32 -1 -22 4 -23 4 -8 -6 28 -18 69 -62 63 -67 -3 -3 -12 0 -21 7 -9 7 -19 10
-23 6 -4 -4 2 -12 12 -18 15 -8 16 -12 5 -19 -19 -12 -25 -11 -43 7 -23 23
-20 -5 3 -34 12 -13 25 -20 35 -16 10 4 16 1 16 -7 -1 -21 -25 -49 -43 -49 -9
0 -21 8 -26 18 -10 16 -10 16 -11 0 0 -10 12 -24 26 -31 19 -10 23 -16 14 -22
-7 -4 -16 -2 -21 6 -4 7 -12 10 -16 5 -4 -4 0 -13 10 -20 21 -16 22 -36 2 -36
-11 0 -12 -5 -5 -26 13 -33 13 -34 -5 -34 -8 0 -15 -4 -15 -10 0 -5 -7 -10
-16 -10 -9 0 -18 -9 -21 -20 -3 -11 -9 -20 -12 -20 -4 0 -8 -6 -9 -12 -7 -59
-19 -88 -38 -88 -8 0 -14 -4 -14 -10 0 -17 -26 -11 -45 10 -20 22 -37 27 -29
7 2 -7 14 -17 27 -22 27 -12 36 -55 12 -55 -12 0 -15 -5 -11 -16 3 -8 0 -22
-8 -29 -12 -12 -16 -11 -31 5 -20 23 -24 23 -45 10 -12 -8 -11 -12 8 -30 12
-11 22 -22 22 -23 0 -2 -16 -1 -35 1 -42 5 -71 -14 -54 -35 7 -7 9 -17 5 -20
-4 -4 -11 -1 -16 7 -8 13 -13 13 -30 2 -12 -7 -30 -10 -41 -7 -10 4 -19 2 -19
-3 0 -5 -14 -12 -30 -16 -20 -4 -34 -14 -40 -32 -8 -20 -14 -24 -23 -16 -8 7
-26 8 -50 2 -21 -4 -37 -4 -37 1 0 20 -29 7 -32 -13 -2 -15 -9 -22 -21 -22 -9
1 -17 -3 -17 -10 0 -7 -16 -11 -41 -11 -24 0 -43 -5 -46 -12 -4 -9 -10 -10
-23 -3 -15 8 -22 6 -30 -7 -8 -13 -13 -15 -17 -5 -4 9 -8 10 -18 2 -9 -8 -15
-8 -20 0 -4 7 -12 7 -25 0 -13 -7 -19 -6 -24 6 -4 10 -13 13 -26 9 -12 -4 -27
-1 -35 5 -8 7 -20 8 -27 4 -7 -5 -22 -8 -32 -9 -33 0 -29 -23 6 -31 18 -4 35
-8 38 -9 9 -2 158 -17 187 -19 16 -1 33 -4 38 -7 25 -15 323 61 397 102 10 5
25 9 33 9 8 0 15 3 15 8 0 4 12 13 28 19 53 24 222 203 222 235 0 9 7 18 15
22 8 3 15 12 15 19 0 8 6 19 13 25 11 10 31 44 105 189 7 13 12 31 12 42 0 11
9 23 20 26 22 7 26 20 9 31 -8 5 -9 26 -5 68 16 136 17 156 6 156 -5 0 -10 -9
-10 -20 0 -11 -4 -20 -10 -20 -5 0 -10 7 -10 16 0 10 -6 13 -18 10 -11 -4 -27
2 -40 14 -22 21 -57 27 -67 11z"/>
<path d="M718 1199 c-96 -8 -179 -31 -199 -55 -11 -13 -9 -14 14 -9 22 6 25 4
20 -14 -3 -13 -1 -21 7 -21 7 0 9 -8 5 -20 -6 -18 -2 -20 32 -21 21 -1 56 0
78 1 22 1 37 -2 33 -6 -4 -4 -20 -7 -35 -8 -23 -1 -28 -6 -28 -26 0 -17 -8
-29 -26 -38 -20 -10 -26 -20 -25 -42 0 -20 -8 -37 -29 -55 -21 -17 -26 -28
-18 -33 17 -11 33 -58 33 -98 0 -28 4 -35 18 -32 23 4 42 -10 42 -30 0 -14 -2
-15 -10 -2 -21 33 -18 1 5 -45 25 -52 24 -74 -1 -40 -14 19 -15 18 -8 -10 4
-16 13 -38 22 -47 13 -16 10 -22 -27 -64 -22 -26 -41 -52 -41 -58 0 -6 6 -4
13 5 7 8 19 18 28 21 13 5 15 -6 17 -66 2 -39 7 -72 12 -74 13 -5 13 -122 0
-122 -5 0 -10 -7 -10 -16 0 -10 -10 -2 -25 20 -14 20 -24 40 -23 44 1 4 -6 23
-16 42 -13 24 -15 35 -7 38 9 3 9 7 0 18 -7 8 -9 27 -5 45 5 28 4 30 -9 19 -9
-7 -14 -18 -12 -24 6 -15 -17 -43 -69 -84 -47 -36 -56 -39 -48 -17 4 8 1 22
-6 30 -7 9 -10 18 -6 22 3 4 13 -2 21 -13 14 -19 14 -19 15 2 0 11 -9 29 -20
39 -21 19 -27 45 -10 45 14 0 13 27 -1 36 -6 3 -15 1 -19 -6 -4 -7 -13 -9 -19
-6 -6 4 -11 3 -11 -2 0 -6 -9 -8 -20 -5 -14 4 -20 0 -20 -11 0 -10 -4 -14 -10
-11 -5 3 -3 -13 5 -36 18 -51 18 -50 0 -43 -19 8 -19 -7 0 -32 8 -10 15 -25
15 -33 0 -11 -3 -11 -17 0 -15 12 -16 12 -10 -4 4 -10 7 -22 7 -27 0 -5 8 -10
18 -12 12 -3 -1 -17 -47 -51 -35 -26 -68 -47 -75 -47 -6 0 -4 5 4 10 12 8 13
13 2 30 -15 25 -4 27 14 3 26 -36 25 -3 -2 38 -20 32 -24 47 -16 59 7 11 6 21
-4 35 -13 17 -15 17 -32 2 -10 -10 -21 -14 -25 -11 -6 6 33 54 72 88 13 12 32
29 42 40 10 10 25 16 34 12 11 -4 20 5 32 30 10 20 22 33 30 30 7 -3 13 -1 13
5 0 5 -7 12 -15 15 -12 5 -13 10 -4 20 9 11 6 14 -15 14 -14 0 -26 -5 -26 -10
0 -6 -8 -5 -20 2 -25 16 -26 37 -2 54 14 11 14 13 2 13 -8 0 -24 -6 -34 -14
-11 -8 -28 -15 -38 -15 -10 0 -18 -4 -18 -10 0 -5 -12 -13 -28 -16 -15 -4 -32
-11 -39 -16 -14 -12 -33 -2 -33 17 0 7 -7 15 -14 18 -15 6 -12 -16 6 -39 5 -7
-8 -21 -37 -39 -24 -16 -47 -36 -50 -44 -4 -9 -9 -69 -12 -133 -5 -92 -3 -121
8 -135 9 -11 10 -14 2 -9 -16 9 -16 1 -3 -24 6 -11 6 -21 1 -24 -5 -3 -8 -27
-6 -53 l2 -48 676 -3 675 -2 -1 62 c-1 35 -5 65 -9 68 -4 3 -9 41 -11 85 -3
44 -12 141 -20 215 -9 74 -19 179 -23 233 -3 53 -10 99 -14 102 -4 3 -21 -2
-36 -10 -30 -15 -90 -22 -67 -7 9 6 10 17 3 42 -13 44 -35 74 -49 65 -7 -4
-11 4 -11 19 0 14 5 26 10 26 19 0 70 43 70 59 0 12 -2 13 -8 3 -7 -10 -15
-10 -36 -2 -20 7 -40 7 -69 -1 -55 -16 -77 -18 -83 -7 -3 4 5 12 18 17 13 6
37 19 53 31 28 20 28 21 5 15 -14 -4 -29 -11 -35 -15 -12 -9 -85 -24 -102 -21
-7 1 -13 -3 -13 -10 0 -7 -11 -10 -29 -7 -17 2 -28 1 -25 -4 3 -4 -10 -8 -30
-8 -30 0 -35 4 -41 31 -4 17 -4 33 -1 36 3 4 6 -1 6 -11 0 -10 7 -24 15 -33
14 -14 15 -13 9 13 -5 16 -8 37 -8 47 0 9 -6 17 -13 17 -7 0 -13 6 -13 13 0 7
37 26 81 42 78 29 125 65 97 74 -7 2 -14 -1 -16 -7 -2 -7 -8 -12 -13 -12 -6 0
-7 5 -4 10 7 11 -4 13 -47 10 -16 -1 -35 6 -44 14 -8 9 -23 15 -32 15 -9 -1
-56 -5 -104 -10z m259 -390 c-7 -26 10 -34 18 -9 3 11 10 20 15 20 10 0 22
-31 15 -38 -3 -3 -5 0 -5 6 0 21 -18 13 -26 -10 -5 -13 -7 -26 -6 -30 3 -13
-16 -9 -22 5 -3 6 -4 -1 0 -17 3 -16 0 -32 -6 -36 -17 -10 -1 -40 18 -33 12 4
9 -2 -8 -21 -38 -42 -104 -62 -71 -22 7 8 10 20 6 27 -6 8 -10 7 -17 -2 -7
-10 -8 -5 -4 14 5 19 3 26 -6 25 -7 -2 -14 8 -16 22 -2 20 -1 22 8 10 9 -12
10 -10 4 10 -9 34 -13 37 -25 20 -8 -11 -9 -8 -3 10 3 14 7 25 8 26 0 0 14 8
30 18 34 22 77 35 89 28 5 -2 7 -13 4 -23z"/>
</g>
</svg>
